<svg width="20" height="20" viewBox="0 0 20 20" fill="none" xmlns="http://www.w3.org/2000/svg">
<path d="M8.125 8.125H11.875V9.375H8.125V8.125Z" fill="white"/>
<path d="M15.9 5L15.1062 2.15625C15.0307 1.8955 14.8727 1.66626 14.6559 1.50287C14.4391 1.33949 14.1752 1.25077 13.9038 1.25H6.09625C5.82489 1.2509 5.56113 1.33969 5.34446 1.50306C5.12779 1.66644 4.96988 1.89561 4.89437 2.15625L4.08188 5H2.5V6.25H3.75V10.625C3.75033 10.9564 3.88213 11.2742 4.11648 11.5085C4.35083 11.7429 4.66858 11.8747 5 11.875V13.75H6.25V11.875H13.75V13.75H15V11.875C15.3314 11.8747 15.6492 11.7429 15.8835 11.5085C16.1179 11.2742 16.2497 10.9564 16.25 10.625V6.25H17.5V5H15.9ZM6.09688 2.5H13.9044L14.7969 5.625H5.20375L6.09688 2.5ZM15 8.125H13.75V9.375H15V10.625H5V9.375H6.25V8.125H5V6.875H15V8.125Z" fill="white"/>
<path d="M1.25 10H2.5V18.75H1.25V10Z" fill="white"/>
<path d="M17.5 10H18.75V18.75H17.5V10Z" fill="white"/>
<path d="M9.375 13.125H10.625V15H9.375V13.125Z" fill="white"/>
<path d="M9.375 16.25H10.625V18.75H9.375V16.25Z" fill="white"/>
</svg>
