<svg width="7" height="7" viewBox="0 0 7 7" fill="none" xmlns="http://www.w3.org/2000/svg">
<path d="M6.40296 2.225L4.41936 1.93672L3.53264 0.139065C3.50843 0.0898466 3.46858 0.0500029 3.41936 0.0257841C3.29593 -0.0351534 3.14593 0.0156279 3.08421 0.139065L2.19749 1.93672L0.213894 2.225C0.159207 2.23282 0.109207 2.2586 0.0709253 2.29766C0.0246454 2.34523 -0.00085696 2.40922 2.1989e-05 2.47558C0.000900938 2.54194 0.0280893 2.60524 0.0756128 2.65157L1.51077 4.05078L1.17171 6.02657C1.16376 6.07253 1.16884 6.1198 1.18639 6.16301C1.20393 6.20623 1.23324 6.24367 1.27098 6.27108C1.30872 6.29849 1.35338 6.31478 1.39991 6.31809C1.44644 6.32141 1.49296 6.31163 1.53421 6.28985L3.30843 5.35703L5.08264 6.28985C5.13108 6.31563 5.18733 6.32422 5.24124 6.31485C5.37718 6.29141 5.46858 6.1625 5.44514 6.02657L5.10608 4.05078L6.54124 2.65157C6.5803 2.61328 6.60608 2.56328 6.61389 2.5086C6.63499 2.37188 6.53968 2.24532 6.40296 2.225ZM4.50218 3.85391L4.78421 5.49688L3.30843 4.72188L1.83264 5.49766L2.11468 3.85469L0.920925 2.69063L2.57093 2.45078L3.30843 0.956253L4.04593 2.45078L5.69593 2.69063L4.50218 3.85391Z" fill="#FFC700"/>
</svg>
