<svg width="19" height="19" viewBox="0 0 19 19" fill="none" xmlns="http://www.w3.org/2000/svg">
<rect width="19" height="19" rx="5" fill="#08486A"/>
<path d="M5.50009 16H15.1668C15.2934 16 15.4154 15.9518 15.508 15.8654C15.6005 15.7789 15.6568 15.6605 15.6654 15.5341C15.6741 15.4077 15.6344 15.2827 15.5545 15.1845C15.4745 15.0862 15.3603 15.0219 15.2348 15.0047L15.1668 15H5.50009C5.37341 15 5.25146 15.0482 5.1589 15.1346C5.06633 15.2211 5.01004 15.3395 5.00141 15.4659C4.99277 15.5923 5.03244 15.7173 5.11238 15.8155C5.19232 15.9138 5.30659 15.9781 5.43209 15.9953L5.50009 16Z" fill="white"/>
<path d="M5.50009 4H15.1668C15.2934 3.99996 15.4154 3.95184 15.508 3.86535C15.6005 3.77887 15.6568 3.66047 15.6654 3.53408C15.6741 3.40769 15.6344 3.28274 15.5545 3.18447C15.4745 3.0862 15.3603 3.02193 15.2348 3.00467L15.1668 3H5.50009C5.37341 3.00004 5.25146 3.04816 5.1589 3.13465C5.06633 3.22113 5.01004 3.33953 5.00141 3.46592C4.99277 3.59231 5.03244 3.71726 5.11238 3.81553C5.19232 3.9138 5.30659 3.97807 5.43209 3.99533L5.50009 4Z" fill="white"/>
<path d="M11.4167 7C11.3062 7 11.2002 7.05268 11.122 7.14645C11.0439 7.24022 11 7.36739 11 7.5C11 7.63261 11.0439 7.75978 11.122 7.85355C11.2002 7.94732 11.3062 8 11.4167 8H15.5833C15.6938 8 15.7998 7.94732 15.878 7.85355C15.9561 7.75978 16 7.63261 16 7.5C16 7.36739 15.9561 7.24022 15.878 7.14645C15.7998 7.05268 15.6938 7 15.5833 7H11.4167Z" fill="white"/>
<path d="M11 11.5C11 11.3674 11.0439 11.2402 11.122 11.1464C11.2002 11.0527 11.3062 11 11.4167 11H15.5833C15.6938 11 15.7998 11.0527 15.878 11.1464C15.9561 11.2402 16 11.3674 16 11.5C16 11.6326 15.9561 11.7598 15.878 11.8536C15.7998 11.9473 15.6938 12 15.5833 12H11.4167C11.3062 12 11.2002 11.9473 11.122 11.8536C11.0439 11.7598 11 11.6326 11 11.5Z" fill="white"/>
<path d="M11 9.5C11 10.0909 10.8836 10.6761 10.6575 11.2221C10.4313 11.768 10.0998 12.2641 9.68198 12.682C9.26412 13.0998 8.76804 13.4313 8.22208 13.6575C7.67611 13.8836 7.09095 14 6.5 14C5.90905 14 5.32389 13.8836 4.77792 13.6575C4.23196 13.4313 3.73588 13.0998 3.31802 12.682C2.90016 12.2641 2.56869 11.768 2.34254 11.2221C2.1164 10.6761 2 10.0909 2 9.5C2 8.30653 2.47411 7.16193 3.31802 6.31802C4.16193 5.47411 5.30653 5 6.5 5C7.69347 5 8.83807 5.47411 9.68198 6.31802C10.5259 7.16193 11 8.30653 11 9.5ZM7 7.5C7 7.36739 6.94732 7.24021 6.85355 7.14645C6.75979 7.05268 6.63261 7 6.5 7C6.36739 7 6.24021 7.05268 6.14645 7.14645C6.05268 7.24021 6 7.36739 6 7.5V9H4.5C4.36739 9 4.24021 9.05268 4.14645 9.14645C4.05268 9.24021 4 9.36739 4 9.5C4 9.63261 4.05268 9.75979 4.14645 9.85355C4.24021 9.94732 4.36739 10 4.5 10H6V11.5C6 11.6326 6.05268 11.7598 6.14645 11.8536C6.24021 11.9473 6.36739 12 6.5 12C6.63261 12 6.75979 11.9473 6.85355 11.8536C6.94732 11.7598 7 11.6326 7 11.5V10H8.5C8.63261 10 8.75979 9.94732 8.85355 9.85355C8.94732 9.75979 9 9.63261 9 9.5C9 9.36739 8.94732 9.24021 8.85355 9.14645C8.75979 9.05268 8.63261 9 8.5 9H7V7.5Z" fill="white"/>
</svg>
