<svg width="8" height="8" viewBox="0 0 8 8" fill="none" xmlns="http://www.w3.org/2000/svg">
<path d="M1.13438 7.04136C1.12154 7.09637 1.12131 7.15356 1.13371 7.20867C1.14611 7.26378 1.17083 7.31536 1.206 7.35955C1.24118 7.40375 1.2859 7.43941 1.33682 7.46386C1.38773 7.48831 1.44353 7.50092 1.50001 7.50074C1.57408 7.50076 1.6465 7.47883 1.70813 7.43774L3.75001 6.07649L5.79188 7.43774C5.85576 7.48015 5.93109 7.50198 6.00775 7.5003C6.0844 7.49862 6.1587 7.47351 6.22066 7.42834C6.28261 7.38317 6.32925 7.32011 6.3543 7.24764C6.37934 7.17517 6.3816 7.09678 6.36076 7.02299L5.67488 4.62299L7.37588 3.09224C7.43036 3.04318 7.46927 2.97924 7.48779 2.9083C7.50631 2.83737 7.50364 2.76257 7.4801 2.69314C7.45655 2.62371 7.41318 2.56271 7.35534 2.51767C7.29749 2.47263 7.22771 2.44554 7.15463 2.43974L5.01676 2.26949L4.09163 0.221613C4.06217 0.155655 4.01425 0.0996334 3.95365 0.0603094C3.89305 0.0209854 3.82237 3.97046e-05 3.75013 5.6392e-08C3.67789 -3.95918e-05 3.60719 0.0208286 3.54654 0.060086C3.4859 0.0993435 3.43792 0.155312 3.40838 0.221238L2.48326 2.26949L0.345385 2.43936C0.273556 2.44505 0.204887 2.47132 0.147593 2.51501C0.0902993 2.55871 0.0468072 2.61798 0.0223198 2.68575C-0.00216764 2.75351 -0.00661348 2.8269 0.0095142 2.89713C0.0256419 2.96735 0.0616601 3.03145 0.11326 3.08174L1.69351 4.62186L1.13438 7.04136ZM3.75001 1.28661L4.51576 2.98199L4.73626 2.99961H4.73663L6.22613 3.11774L4.99951 4.22174L4.99913 4.22249L4.82551 4.37849L4.88963 4.60236V4.60349L5.35951 6.24786L3.75001 5.17499V1.28661Z" fill="#FFC700"/>
</svg>
