<svg width="46" height="47" viewBox="0 0 46 47" fill="none" xmlns="http://www.w3.org/2000/svg">
<circle cx="22.8644" cy="23.5592" r="22.8644" fill="#14628D"/>
<path d="M31.2882 27.386V17.5423C31.2882 14.8828 29.1341 12.7288 26.4746 12.7288C23.8151 12.7288 21.6611 14.8828 21.6611 17.5423V29.5762C21.6611 30.8999 20.578 31.983 19.2543 31.983C17.9305 31.983 16.8475 30.8999 16.8475 29.5762V19.7325C18.2434 19.2271 19.2543 17.9033 19.2543 16.3389C19.2543 14.3413 17.6417 12.7288 15.6441 12.7288C13.6465 12.7288 12.0339 14.3413 12.0339 16.3389C12.0339 17.9033 13.0448 19.2271 14.4407 19.7325V29.5762C14.4407 32.2357 16.5948 34.3898 19.2543 34.3898C21.9138 34.3898 24.0678 32.2357 24.0678 29.5762V17.5423C24.0678 16.2186 25.1509 15.1355 26.4746 15.1355C27.7983 15.1355 28.8814 16.2186 28.8814 17.5423V27.386C28.08 27.67 27.4047 28.228 26.9748 28.9616C26.5449 29.6951 26.3881 30.557 26.5321 31.395C26.6761 32.2329 27.1116 32.993 27.7617 33.541C28.4117 34.089 29.2346 34.3896 30.0848 34.3898C32.0824 34.3898 33.695 32.7772 33.695 30.7796C33.695 29.2152 32.6841 27.8915 31.2882 27.386Z" fill="white"/>
</svg>
