<svg width="46" height="46" viewBox="0 0 46 46" fill="none" xmlns="http://www.w3.org/2000/svg">
<circle cx="22.8644" cy="22.8644" r="22.8644" fill="#0085FE"/>
<path d="M21.8333 24.75H19.4999C19.4999 22.0647 20.6062 19.4893 22.5753 17.5905C24.5444 15.6917 27.2151 14.625 29.9999 14.625V16.875C25.4849 16.875 21.8333 20.3963 21.8333 24.75ZM29.9999 21.375V19.125C26.7799 19.125 24.1666 21.645 24.1666 24.75H26.4999C26.4999 22.8825 28.0633 21.375 29.9999 21.375ZM17.1666 13.5C17.1666 12.2512 16.1283 11.25 14.8333 11.25C13.5383 11.25 12.4999 12.2512 12.4999 13.5C12.4999 14.7488 13.5383 15.75 14.8333 15.75C16.1283 15.75 17.1666 14.7488 17.1666 13.5ZM22.3583 14.0625H20.0249C19.8895 14.8484 19.4693 15.5624 18.839 16.0774C18.2088 16.5925 17.4094 16.8751 16.5833 16.875H13.0833C12.1149 16.875 11.3333 17.6288 11.3333 18.5625V21.375H18.3333V18.8325C19.4142 18.5038 20.3715 17.8768 21.0869 17.029C21.8022 16.1813 22.2443 15.1499 22.3583 14.0625V14.0625ZM31.1666 28.125C32.4616 28.125 33.4999 27.1238 33.4999 25.875C33.4999 24.6262 32.4616 23.625 31.1666 23.625C29.8716 23.625 28.8333 24.6262 28.8333 25.875C28.8333 27.1238 29.8716 28.125 31.1666 28.125ZM32.9166 29.25H29.4166C28.5904 29.2501 27.7911 28.9675 27.1608 28.4524C26.5305 27.9374 26.1103 27.2234 25.9749 26.4375H23.6416C23.7556 27.5249 24.1976 28.5562 24.9129 29.404C25.6283 30.2518 26.5856 30.8788 27.6666 31.2075V33.75H34.6666V30.9375C34.6666 30.0038 33.8849 29.25 32.9166 29.25Z" fill="white"/>
</svg>
