<svg width="46" height="46" viewBox="0 0 46 46" fill="none" xmlns="http://www.w3.org/2000/svg">
<circle cx="22.8644" cy="22.8644" r="22.8644" fill="#3333AE"/>
<path d="M19.3408 33.375H16.1562C14.9545 33.375 13.8019 32.8976 12.9522 32.0478C12.1024 31.1981 11.625 30.0455 11.625 28.8438V18.875H21.2983C19.9889 19.7942 18.9203 21.0154 18.183 22.4351C17.4456 23.8549 17.0613 25.4314 17.0625 27.0312C17.0625 29.4419 17.918 31.6531 19.3408 33.375ZM33.375 17.0625V16.1562C33.375 14.9545 32.8976 13.8019 32.0478 12.9522C31.1981 12.1024 30.0455 11.625 28.8438 11.625H16.1562C14.9545 11.625 13.8019 12.1024 12.9522 12.9522C12.1024 13.8019 11.625 14.9545 11.625 16.1562V17.0625H33.375ZM25.8984 23.4062C25.8984 23.1058 26.0178 22.8177 26.2302 22.6052C26.4427 22.3928 26.7308 22.2734 27.0312 22.2734C27.3317 22.2734 27.6198 22.3928 27.8323 22.6052C28.0447 22.8177 28.1641 23.1058 28.1641 23.4062C28.1641 23.7067 28.0447 23.9948 27.8323 24.2073C27.6198 24.4197 27.3317 24.5391 27.0312 24.5391C26.7308 24.5391 26.4427 24.4197 26.2302 24.2073C26.0178 23.9948 25.8984 23.7067 25.8984 23.4062ZM27.9375 30.6562C27.9375 30.8966 27.842 31.1271 27.6721 31.2971C27.5021 31.467 27.2716 31.5625 27.0312 31.5625C26.7909 31.5625 26.5604 31.467 26.3904 31.2971C26.2205 31.1271 26.125 30.8966 26.125 30.6562V27.0312C26.125 26.7909 26.2205 26.5604 26.3904 26.3904C26.5604 26.2205 26.7909 26.125 27.0312 26.125C27.2716 26.125 27.5021 26.2205 27.6721 26.3904C27.842 26.5604 27.9375 26.7909 27.9375 27.0312V30.6562ZM18.875 27.0312C18.875 25.9602 19.086 24.8996 19.4959 23.91C19.9057 22.9204 20.5065 22.0213 21.2639 21.2639C22.0213 20.5065 22.9204 19.9057 23.91 19.4959C24.8996 19.086 25.9602 18.875 27.0312 18.875C28.1023 18.875 29.1629 19.086 30.1525 19.4959C31.1421 19.9057 32.0412 20.5065 32.7986 21.2639C33.556 22.0213 34.1568 22.9204 34.5666 23.91C34.9765 24.8996 35.1875 25.9602 35.1875 27.0312C35.1875 29.1944 34.3282 31.269 32.7986 32.7986C31.269 34.3282 29.1944 35.1875 27.0312 35.1875C24.8681 35.1875 22.7935 34.3282 21.2639 32.7986C19.7343 31.269 18.875 29.1944 18.875 27.0312V27.0312ZM20.6875 27.0312C20.6875 28.7137 21.3559 30.3273 22.5455 31.517C23.7352 32.7066 25.3488 33.375 27.0312 33.375C28.7137 33.375 30.3273 32.7066 31.517 31.517C32.7066 30.3273 33.375 28.7137 33.375 27.0312C33.375 25.3488 32.7066 23.7352 31.517 22.5455C30.3273 21.3559 28.7137 20.6875 27.0312 20.6875C25.3488 20.6875 23.7352 21.3559 22.5455 22.5455C21.3559 23.7352 20.6875 25.3488 20.6875 27.0312V27.0312Z" fill="white"/>
</svg>
