<svg width="19" height="19" viewBox="0 0 19 19" fill="none" xmlns="http://www.w3.org/2000/svg">
<rect x="19" width="19" height="19" rx="5" transform="rotate(90 19 0)" fill="#D2DCE3"/>
<path d="M3 5.50005L3 15.1667C3.00004 15.2934 3.04816 15.4153 3.13465 15.5079C3.22113 15.6005 3.33953 15.6568 3.46592 15.6654C3.59231 15.674 3.71726 15.6344 3.81553 15.5544C3.9138 15.4745 3.97807 15.3602 3.99533 15.2347L4 15.1667L4 5.50005C3.99996 5.37337 3.95184 5.25142 3.86535 5.15886C3.77887 5.06629 3.66047 5.01 3.53408 5.00137C3.40769 4.99273 3.28274 5.03239 3.18447 5.11234C3.0862 5.19228 3.02193 5.30655 3.00467 5.43205L3 5.50005Z" fill="#08486A"/>
<path d="M15 5.50005L15 15.1667C15 15.2934 15.0482 15.4153 15.1346 15.5079C15.2211 15.6005 15.3395 15.6568 15.4659 15.6654C15.5923 15.674 15.7173 15.6344 15.8155 15.5544C15.9138 15.4745 15.9781 15.3602 15.9953 15.2347L16 15.1667L16 5.50005C16 5.37337 15.9518 5.25142 15.8654 5.15886C15.7789 5.06629 15.6605 5.01 15.5341 5.00137C15.4077 4.99273 15.2827 5.03239 15.1845 5.11234C15.0862 5.19228 15.0219 5.30655 15.0047 5.43205L15 5.50005Z" fill="#08486A"/>
<path d="M12 11.4166C12 11.3061 11.9473 11.2001 11.8536 11.122C11.7598 11.0439 11.6326 11 11.5 11C11.3674 11 11.2402 11.0439 11.1464 11.122C11.0527 11.2001 11 11.3061 11 11.4166L11 15.5833C11 15.6938 11.0527 15.7998 11.1464 15.8779C11.2402 15.9561 11.3674 16 11.5 16C11.6326 16 11.7598 15.9561 11.8536 15.8779C11.9473 15.7998 12 15.6938 12 15.5833L12 11.4166Z" fill="#08486A"/>
<path d="M7.5 11C7.63261 11 7.75978 11.0439 7.85355 11.122C7.94732 11.2001 8 11.3061 8 11.4166L8 15.5833C8 15.6938 7.94732 15.7998 7.85355 15.8779C7.75978 15.9561 7.63261 16 7.5 16C7.36739 16 7.24021 15.9561 7.14645 15.8779C7.05268 15.7998 7 15.6938 7 15.5833L7 11.4166C7 11.3061 7.05268 11.2001 7.14645 11.122C7.24022 11.0439 7.36739 11 7.5 11Z" fill="#08486A"/>
<circle cx="9.5" cy="6.5" r="4.5" fill="#08486A"/>
<line x1="7.5" y1="6.5" x2="11.5" y2="6.5" stroke="#D2DCE3" stroke-linecap="round"/>
</svg>
