<svg width="14" height="18" viewBox="0 0 14 18" fill="none" xmlns="http://www.w3.org/2000/svg">
<path d="M13.09 7.5V6H4.59003V1.5C4.59003 1.10218 4.43199 0.720644 4.15069 0.43934C3.86938 0.158035 3.48785 0 3.09003 0C2.6922 0 2.31067 0.158035 2.02937 0.43934C1.74806 0.720644 1.59003 1.10218 1.59003 1.5C1.59003 1.89782 1.74806 2.27936 2.02937 2.56066C2.31067 2.84196 2.6922 3 3.09003 3V6H0.0900269V7.5H3.09003V13.7C3.09003 16.06 5.00003 17.97 7.34003 18C9.68003 17.96 11.54 16.04 11.5 13.7C11.5 12.11 10.75 10.61 9.50003 9.62C9.28355 9.43958 9.04897 9.28207 8.80003 9.15C8.58003 9.05 8.34003 9 8.10003 9C7.39003 9 6.74003 9.39 6.39003 10C6.20003 10.3 6.10003 10.65 6.10003 11C6.11003 12.1 7.00003 13 8.11003 13C8.73003 13 9.31003 12.69 9.69003 12.2C9.90003 12.67 10 13.18 10 13.7C10.04 15.2 8.86003 16.45 7.34003 16.5C5.81003 16.5 4.58003 15.23 4.59003 13.7V7.5H13.09Z" fill="#08486A"/>
</svg>
